<svg width="76" height="71" viewBox="0 0 76 71" fill="none" xmlns="http://www.w3.org/2000/svg">
<g id="Logo" clip-path="url(#clip0_240_95)">
<g id="layer1">
<g id="g41">
<path id="rect10-4" d="M74.3152 20.7756H69.3144C68.4359 20.7756 67.7238 21.4845 67.7238 22.359V26.7407C67.7238 27.6152 68.4359 28.3241 69.3144 28.3241H74.3152C75.1937 28.3241 75.9058 27.6152 75.9058 26.7407V22.359C75.9058 21.4845 75.1937 20.7756 74.3152 20.7756Z" fill="#31C1F4"/>
<path id="rect10-5" d="M58.3825 1.06378H53.2593C52.3592 1.06378 51.6296 1.79007 51.6296 2.68598V7.17507C51.6296 8.07099 52.3592 8.79728 53.2593 8.79728H58.3825C59.2825 8.79728 60.0122 8.07099 60.0122 7.17507V2.68598C60.0122 1.79007 59.2825 1.06378 58.3825 1.06378Z" fill="#31C1F4"/>
<path id="path41" d="M50.8848 13.1316V16.0429C50.8848 16.1604 50.8717 16.2743 50.8483 16.385C50.8256 16.4956 50.7927 16.6036 50.7497 16.7052C50.7066 16.8068 50.6536 16.9024 50.5924 16.9927C50.5312 17.0829 50.461 17.1671 50.384 17.2438C50.3069 17.3205 50.2225 17.3903 50.1318 17.4512C50.0412 17.5121 49.945 17.5649 49.843 17.6077C49.741 17.6505 49.6361 17.6834 49.525 17.7059C49.4138 17.7285 49.2957 17.7387 49.1777 17.7387H43.8184C43.7003 17.7387 43.5859 17.7284 43.4747 17.7059C43.3636 17.6834 43.2587 17.6505 43.1567 17.6077C43.0546 17.5649 42.9549 17.5121 42.8642 17.4512C42.7736 17.3903 42.689 17.3205 42.612 17.2438C42.5349 17.1671 42.4684 17.0829 42.4072 16.9927C42.3461 16.9024 42.2931 16.8068 42.2501 16.7052C42.207 16.6036 42.174 16.4956 42.1514 16.385C42.1287 16.2743 42.1148 16.1604 42.1148 16.0429V13.1316H33.82C33.5608 13.1316 33.3081 13.1463 33.0559 13.1716C32.8037 13.197 32.5542 13.2314 32.3101 13.2808C32.0661 13.3303 31.8246 13.3941 31.59 13.4664C31.3553 13.5387 31.1267 13.6199 30.9027 13.7139C30.6787 13.8079 30.4604 13.9124 30.2483 14.0268C30.0362 14.1412 29.8295 14.268 29.6305 14.4016C29.4315 14.5353 29.2412 14.6758 29.0565 14.8274C28.8719 14.979 28.6955 15.1395 28.5265 15.3078C28.3574 15.4761 28.1962 15.6516 28.0439 15.8354C27.8916 16.0193 27.7468 16.2123 27.6125 16.4104C27.4783 16.6085 27.3546 16.8143 27.2396 17.0254C27.1247 17.2366 27.0197 17.4539 26.9253 17.6768C26.8308 17.8998 26.7457 18.1274 26.673 18.361C26.6004 18.5945 26.5399 18.8313 26.4902 19.0742C26.4405 19.3171 26.4024 19.5656 26.3769 19.8166C26.3514 20.0676 26.3367 20.3229 26.3367 20.5808V41.1962C26.3367 41.4542 26.3515 41.7094 26.3769 41.9604C26.4023 42.2115 26.4405 42.4562 26.4902 42.6992C26.5399 42.9421 26.6003 43.1825 26.673 43.4161C26.7457 43.6496 26.8308 43.8772 26.9253 44.1002C27.0197 44.3232 27.1247 44.5405 27.2396 44.7516C27.3546 44.9627 27.4783 45.1685 27.6125 45.3666C27.7468 45.5647 27.8916 45.7578 28.0439 45.9416C28.1962 46.1254 28.3574 46.3009 28.5265 46.4692C28.6955 46.6376 28.8719 46.798 29.0565 46.9496C29.2412 47.1012 29.4315 47.2418 29.6305 47.3754C29.8295 47.509 30.0362 47.6358 30.2483 47.7502C30.4604 47.8646 30.6787 47.9692 30.9027 48.0632C31.1267 48.1572 31.3553 48.2383 31.59 48.3106C31.8246 48.383 32.0661 48.4468 32.3101 48.4962C32.5542 48.5457 32.8037 48.58 33.0559 48.6054C33.3081 48.6307 33.5608 48.6454 33.82 48.6454H57.3482C57.6073 48.6454 57.8638 48.6307 58.1159 48.6054C58.3681 48.58 58.6177 48.5457 58.8617 48.4962C59.1057 48.4468 59.3436 48.383 59.5782 48.3106C59.8128 48.2383 60.0415 48.1572 60.2655 48.0632C60.4895 47.9692 60.7078 47.8646 60.9199 47.7502C61.132 47.6358 61.3387 47.509 61.5377 47.3754C61.7367 47.2418 61.9306 47.1012 62.1153 46.9496C62.3 46.798 62.4763 46.6376 62.6454 46.4692C62.8144 46.3009 62.9757 46.1254 63.1279 45.9416C63.2803 45.7578 63.4251 45.5647 63.5593 45.3666C63.6935 45.1685 63.8173 44.9627 63.9322 44.7516C64.0471 44.5405 64.1522 44.3232 64.2466 44.1002C64.3409 43.8772 64.4261 43.6496 64.4988 43.4161C64.5715 43.1825 64.6319 42.9421 64.6815 42.6992C64.7313 42.4562 64.7695 42.2115 64.7949 41.9604C64.8204 41.7094 64.8314 41.4542 64.8314 41.1962V40.9742H60.8028C60.6776 40.9742 60.5552 40.9617 60.4373 40.9378C60.3194 40.9139 60.2055 40.8777 60.0973 40.8323C59.9891 40.7869 59.8864 40.7295 59.7902 40.6649C59.694 40.6004 59.6051 40.5279 59.5233 40.4466C59.4417 40.3652 59.3689 40.2767 59.304 40.1809C59.239 40.0852 59.1814 39.983 59.1359 39.8752C59.0902 39.7675 59.0575 39.6542 59.0335 39.5368C59.0096 39.4194 58.997 39.2976 58.997 39.1729V34.191C58.997 34.0663 59.0101 33.9445 59.0335 33.8271C59.0575 33.7097 59.0902 33.5964 59.1359 33.4887C59.1816 33.3809 59.2392 33.2787 59.304 33.183C59.3687 33.0872 59.4416 32.9987 59.5233 32.9173C59.6051 32.836 59.694 32.7635 59.7902 32.699C59.8864 32.6344 59.989 32.577 60.0973 32.5316C60.2055 32.4862 60.3193 32.4536 60.4373 32.4297C60.5552 32.4058 60.6776 32.3897 60.8028 32.3897H64.8314V20.5808C64.8314 20.3229 64.8202 20.0677 64.7949 19.8166C64.7695 19.5656 64.7313 19.3172 64.6815 19.0743C64.6319 18.8313 64.5715 18.5945 64.4988 18.361C64.4262 18.1274 64.3411 17.8998 64.2466 17.6768C64.1523 17.4539 64.0471 17.2366 63.9322 17.0255C63.8173 16.8143 63.6935 16.6085 63.5593 16.4104C63.4251 16.2124 63.2802 16.0193 63.1279 15.8355C62.9756 15.6516 62.8145 15.4761 62.6454 15.3078C62.4764 15.1395 62.3 14.979 62.1153 14.8274C61.9306 14.6759 61.7367 14.5353 61.5377 14.4017C61.3387 14.2681 61.132 14.1413 60.9199 14.0268C60.7078 13.9124 60.4895 13.8079 60.2655 13.7139C60.0415 13.6199 59.8128 13.5388 59.5782 13.4664C59.3436 13.3941 59.1057 13.3303 58.8617 13.2808C58.6177 13.2314 58.3681 13.197 58.1159 13.1717C57.8638 13.1463 57.6073 13.1316 57.3482 13.1316L50.8848 13.1316Z" fill="#31C1F4"/>
<path id="rect10-4-8" d="M14.8712 13.4354H11.2266C10.5863 13.4354 10.0673 13.9521 10.0673 14.5895V17.783C10.0673 18.4203 10.5863 18.937 11.2266 18.937H14.8712C15.5115 18.937 16.0305 18.4203 16.0305 17.783V14.5895C16.0305 13.9521 15.5115 13.4354 14.8712 13.4354Z" fill="#31C1F4"/>
<path id="rect10-4-4" d="M63.0542 55.3886H59.5896C58.981 55.3886 58.4875 55.8798 58.4875 56.4857V59.5215C58.4875 60.1273 58.981 60.6185 59.5896 60.6185H63.0542C63.6629 60.6185 64.1563 60.1273 64.1563 59.5215V56.4857C64.1563 55.8798 63.6629 55.3886 63.0542 55.3886Z" fill="#31C1F4"/>
<path id="rect10-4-2" d="M4.56669 59.3195H1.10204C0.493403 59.3195 0 59.8106 0 60.4165V63.4523C0 64.0582 0.493403 64.5493 1.10204 64.5493H4.56669C5.17533 64.5493 5.66873 64.0582 5.66873 63.4523V60.4165C5.66873 59.8106 5.17533 59.3195 4.56669 59.3195Z" fill="#31C1F4"/>
<path id="path40" d="M18.1111 25.9485C17.8577 25.9485 17.6084 25.96 17.3617 25.9849C17.115 26.0097 16.8729 26.0457 16.6342 26.094C16.3955 26.1424 16.1618 26.2016 15.9323 26.2724C15.7028 26.3431 15.4787 26.4279 15.2596 26.5198C15.0406 26.6117 14.8237 26.7136 14.6162 26.8255C14.4088 26.9374 14.2077 27.0587 14.013 27.1894C13.8184 27.3201 13.6307 27.4596 13.4501 27.6079C13.2694 27.7561 13.0963 27.9127 12.9309 28.0773C12.7656 28.242 12.6083 28.4143 12.4594 28.5941C12.3104 28.7739 12.1702 28.9607 12.0389 29.1545C11.9077 29.3483 11.7858 29.5484 11.6734 29.755C11.5609 29.9615 11.4587 30.1737 11.3663 30.3918C11.2739 30.6099 11.1924 30.8329 11.1214 31.0614C11.0503 31.2898 10.9908 31.5225 10.9422 31.7601C10.9392 31.7744 10.9377 31.7895 10.9349 31.8038H14.3238C14.4359 31.8038 14.5436 31.8151 14.6492 31.8365C14.7547 31.8579 14.8557 31.8905 14.9526 31.9311C15.0494 31.9718 15.1407 32.0225 15.2268 32.0803C15.3128 32.1381 15.3949 32.2041 15.468 32.2768C15.5412 32.3496 15.6074 32.4277 15.6654 32.5134C15.7235 32.5991 15.7745 32.6935 15.8153 32.79C15.8562 32.8864 15.8852 32.9869 15.9067 33.092C15.9282 33.197 15.9396 33.3043 15.9396 33.4159V37.8738C15.9396 37.9853 15.9282 38.0962 15.9067 38.2013C15.8852 38.3063 15.8562 38.4069 15.8153 38.5033C15.7745 38.5997 15.7235 38.6906 15.6654 38.7762C15.6074 38.8619 15.5412 38.94 15.468 39.0128C15.3949 39.0856 15.3128 39.1515 15.2268 39.2093C15.1407 39.2671 15.0494 39.3179 14.9526 39.3585C14.8557 39.3992 14.7547 39.4317 14.6492 39.4531C14.5436 39.4745 14.4359 39.4859 14.3238 39.4859H10.7924V53.3981C10.7924 53.6504 10.804 53.8986 10.8289 54.1441C10.8538 54.3897 10.8936 54.6307 10.9422 54.8683C10.9908 55.1059 11.0503 55.3422 11.1214 55.5706C11.1925 55.7991 11.274 56.0221 11.3663 56.2402C11.4587 56.4583 11.561 56.6705 11.6734 56.8771C11.7858 57.0836 11.9077 57.2837 12.039 57.4775C12.1702 57.6713 12.3104 57.8581 12.4594 58.0379C12.6083 58.2177 12.7656 58.39 12.931 58.5547C13.0963 58.7193 13.2695 58.8759 13.4501 59.0241C13.6307 59.1724 13.8184 59.3119 14.0131 59.4426C14.2077 59.5733 14.4088 59.6946 14.6163 59.8065C14.8237 59.9184 15.0406 60.0203 15.2597 60.1122C15.4787 60.2041 15.7028 60.2889 15.9323 60.3597C16.1618 60.4304 16.3955 60.4896 16.6342 60.538C16.8729 60.5863 17.115 60.6223 17.3617 60.6471C17.5013 60.6611 17.6439 60.6628 17.7858 60.669V56.7242C17.7858 56.6135 17.7974 56.5046 17.8187 56.4003C17.84 56.296 17.8732 56.194 17.9137 56.0983C17.9543 56.0026 18.0023 55.9141 18.06 55.829C18.1176 55.7439 18.1848 55.6647 18.2574 55.5925C18.33 55.5202 18.4095 55.4533 18.495 55.3959C18.5804 55.3386 18.6693 55.2908 18.7655 55.2504C18.8617 55.21 18.9642 55.177 19.0689 55.1558C19.1737 55.1345 19.283 55.123 19.3943 55.123H24.4465C24.5578 55.123 24.6634 55.1346 24.7682 55.1558C24.873 55.177 24.9755 55.21 25.0716 55.2504C25.1678 55.2907 25.2604 55.3386 25.3458 55.3959C25.4313 55.4533 25.5109 55.5202 25.5834 55.5925C25.6561 55.6647 25.7196 55.7439 25.7772 55.829C25.8348 55.9141 25.8865 56.0026 25.9271 56.0983C25.9676 56.194 25.9971 56.296 26.0185 56.4003C26.0398 56.5046 26.0514 56.6135 26.0514 56.7242V60.6835H41.124C41.3774 60.6835 41.6304 60.672 41.877 60.6471C42.1237 60.6224 42.3659 60.5863 42.6045 60.538C42.8432 60.4896 43.0769 60.4304 43.3064 60.3597C43.5359 60.2889 43.76 60.2041 43.9791 60.1122C44.1982 60.0203 44.4114 59.9184 44.6188 59.8065C44.8263 59.6946 45.0274 59.5733 45.222 59.4426C45.4167 59.3119 45.6044 59.1724 45.785 59.0241C45.9656 58.8759 46.1387 58.7193 46.3041 58.5547C46.4695 58.39 46.6304 58.2177 46.7794 58.0379C46.9283 57.8581 47.0685 57.6713 47.1998 57.4775C47.331 57.2838 47.4529 57.0836 47.5653 56.8771C47.6778 56.6705 47.7801 56.4583 47.8724 56.2402C47.9649 56.0221 48.0463 55.7991 48.1174 55.5706C48.1885 55.3422 48.2478 55.1059 48.2965 54.8683C48.3452 54.6307 48.3813 54.3897 48.4062 54.1441C48.4311 53.8986 48.4464 53.6504 48.4464 53.3981V33.2339C48.4464 32.9816 48.4314 32.7335 48.4062 32.4879C48.3813 32.2424 48.3452 31.9977 48.2965 31.7601C48.2478 31.5225 48.1885 31.2898 48.1174 31.0614C48.0462 30.833 47.9648 30.6099 47.8724 30.3918C47.7801 30.1737 47.6778 29.9615 47.5653 29.755C47.4529 29.5484 47.3311 29.3483 47.1998 29.1545C47.0686 28.9608 46.9283 28.7739 46.7794 28.5941C46.6304 28.4143 46.4695 28.242 46.3041 28.0773C46.1387 27.9127 45.9656 27.7562 45.785 27.6079C45.6044 27.4597 45.4167 27.3201 45.222 27.1894C45.0274 27.0587 44.8263 26.9374 44.6188 26.8255C44.4114 26.7136 44.1982 26.6118 43.9791 26.5198C43.76 26.4279 43.5359 26.3431 43.3064 26.2724C43.0769 26.2016 42.8432 26.1424 42.6045 26.0941C42.3659 26.0457 42.1237 26.0097 41.877 25.9849C41.6304 25.9601 41.3774 25.9485 41.124 25.9485L18.1111 25.9485Z" fill="#C826E4"/>
<path id="rect10-4-7-1" d="M68.2682 0H64.8435C64.2419 0 63.7542 0.4855 63.7542 1.08439V4.08521C63.7542 4.6841 64.2419 5.16961 64.8435 5.16961H68.2682C68.8699 5.16961 69.3576 4.6841 69.3576 4.08521V1.08439C69.3576 0.4855 68.8699 0 68.2682 0Z" fill="#C826E4"/>
<path id="rect10-4-7-1-0" d="M74.422 8.38562H69.4611C68.5897 8.38562 67.8832 9.08888 67.8832 9.9564V14.3032C67.8832 15.1707 68.5897 15.874 69.4611 15.874H74.422C75.2935 15.874 76 15.1707 76 14.3032V9.9564C76 9.08888 75.2935 8.38562 74.422 8.38562Z" fill="#C826E4"/>
<path id="rect10-4-7-1-8" d="M22.6484 18.23H18.9726C18.3268 18.23 17.8033 18.7511 17.8033 19.3939V22.6148C17.8033 23.2576 18.3268 23.7787 18.9726 23.7787H22.6484C23.2942 23.7787 23.8177 23.2576 23.8177 22.6148V19.3939C23.8177 18.7511 23.2942 18.23 22.6484 18.23Z" fill="#C826E4"/>
<path id="rect10-4-7-1-1" d="M55.5272 50.767H52.1024C51.5008 50.767 51.0131 51.2525 51.0131 51.8514V54.8522C51.0131 55.4511 51.5008 55.9366 52.1024 55.9366H55.5272C56.1288 55.9366 56.6165 55.4511 56.6165 54.8522V51.8514C56.6165 51.2525 56.1288 50.767 55.5272 50.767Z" fill="#C826E4"/>
<path id="rect10-4-7-1-6" d="M6.77328 46.8537H1.74133C0.857352 46.8537 0.140747 47.5671 0.140747 48.447V52.8561C0.140747 53.7361 0.857352 54.4494 1.74133 54.4494H6.77328C7.65726 54.4494 8.37386 53.7361 8.37386 52.8561V48.447C8.37386 47.5671 7.65726 46.8537 6.77328 46.8537Z" fill="#C826E4"/>
<path id="rect10-4-7-1-9" d="M17.9076 63.2527H12.7752C11.8736 63.2527 11.1427 63.9803 11.1427 64.8778V69.3749C11.1427 70.2724 11.8736 71 12.7752 71H17.9076C18.8093 71 19.5402 70.2724 19.5402 69.3749V64.8778C19.5402 63.9803 18.8093 63.2527 17.9076 63.2527Z" fill="#C826E4"/>
</g>
</g>
</g>
<defs>
<clipPath id="clip0_240_95">
<rect width="76" height="71" fill="white"/>
</clipPath>
</defs>
</svg>
