<svg width="21" height="20" viewBox="0 0 21 20" fill="none" xmlns="http://www.w3.org/2000/svg">
  <g opacity="0.77" clip-path="url(#clip0_237_141)">
    <path d="M6.87894 17.9501C14.247 17.9501 18.2781 11.8443 18.2781 6.55098C18.2781 6.37933 18.2743 6.20387 18.2666 6.03222C19.0508 5.46511 19.7275 4.76268 20.265 3.95791C19.5347 4.28284 18.7593 4.49506 17.9653 4.5873C18.8013 4.08617 19.4273 3.29891 19.7272 2.37148C18.9407 2.83759 18.0806 3.16639 17.1837 3.34378C16.5794 2.70169 15.7804 2.27655 14.9103 2.13409C14.0401 1.99163 13.1473 2.13979 12.3698 2.55565C11.5923 2.97152 10.9734 3.63193 10.6089 4.43478C10.2444 5.23763 10.1545 6.13821 10.3531 6.99727C8.7606 6.91736 7.20263 6.50366 5.78023 5.78299C4.35783 5.06233 3.10275 4.05079 2.09637 2.81395C1.58487 3.69584 1.42835 4.7394 1.65862 5.73254C1.88889 6.72568 2.48867 7.59388 3.33607 8.16069C2.69989 8.14049 2.07766 7.9692 1.52076 7.66099V7.71058C1.52019 8.63605 1.84014 9.53316 2.42621 10.2494C3.01229 10.9657 3.82832 11.4568 4.73559 11.6395C4.14628 11.8007 3.52777 11.8242 2.92792 11.7081C3.18393 12.504 3.68205 13.2002 4.35274 13.6994C5.02343 14.1986 5.83324 14.4759 6.66914 14.4927C5.25002 15.6074 3.497 16.2121 1.69242 16.2092C1.37239 16.2087 1.05267 16.1891 0.734985 16.1505C2.56825 17.3266 4.70083 17.9513 6.87894 17.9501Z" fill="#F7F7F7"/>
  </g>
  <defs>
    <clipPath id="clip0_237_141">
      <rect width="19.53" height="19.53" fill="white" transform="translate(0.734985 0.250992)"/>
    </clipPath>
  </defs>
</svg>