<svg width="28" height="32" viewBox="0 0 32 32" fill="none" xmlns="http://www.w3.org/2000/svg">
  <path d="M20.7413 19.396L20.016 18.708L20.7413 19.3973V19.396ZM25.336 27.0053L24.6093 26.316L25.3347 27.0053H25.336ZM23.568 27.952L23.6667 28.9453L23.568 27.9507V27.952ZM5.00267 9.23332C4.99558 9.10217 4.96272 8.97371 4.90598 8.85526C4.84924 8.73681 4.76973 8.63069 4.67198 8.54297C4.57423 8.45525 4.46016 8.38764 4.33628 8.34401C4.21241 8.30037 4.08115 8.28156 3.95 8.28865C3.81885 8.29574 3.69039 8.3286 3.57194 8.38534C3.45349 8.44208 3.34737 8.52159 3.25965 8.61934C3.17193 8.71709 3.10432 8.83116 3.06069 8.95504C3.01705 9.07891 2.99824 9.21017 3.00533 9.34132L5.00267 9.23332ZM6.29067 4.12265C6.11555 4.31617 6.02304 4.57048 6.03287 4.83129C6.0427 5.09209 6.1541 5.33871 6.34329 5.5185C6.53247 5.69829 6.78445 5.79699 7.04541 5.79353C7.30638 5.79007 7.55565 5.68472 7.74 5.49999L6.29067 4.12265ZM14.2187 26.416C14.3299 26.4876 14.4542 26.5365 14.5844 26.5598C14.7146 26.5831 14.8482 26.5803 14.9773 26.5516C15.1064 26.5229 15.2286 26.4689 15.3367 26.3926C15.4448 26.3164 15.5367 26.2195 15.6071 26.1075C15.6775 25.9954 15.7249 25.8706 15.7467 25.7401C15.7685 25.6096 15.7642 25.4761 15.734 25.3473C15.7038 25.2185 15.6484 25.097 15.5709 24.9898C15.4935 24.8825 15.3955 24.7917 15.2827 24.7227L14.2187 26.416ZM20.1507 26.744C19.8909 26.6897 19.6203 26.7408 19.3982 26.8861C19.1762 27.0314 19.0209 27.2589 18.9667 27.5187C18.9124 27.7784 18.9635 28.049 19.1088 28.2711C19.2541 28.4931 19.4816 28.6484 19.7413 28.7027L20.1507 26.744ZM20.86 20.7253L21.4667 20.0853L20.016 18.708L19.4093 19.348L20.86 20.7253ZM23.4653 19.816L26.012 21.2827L27.0093 19.5493L24.4627 18.0827L23.4653 19.816ZM26.504 24.3227L24.6093 26.316L26.06 27.6947L27.9533 25.7L26.504 24.3227ZM11.1453 21.2787C5.97733 15.8373 5.11067 11.2467 5.00267 9.23332L3.00533 9.34132C3.13867 11.808 4.184 16.8533 9.696 22.656L11.1453 21.2787ZM12.98 12.4293L13.3613 12.0267L11.912 10.6493L11.5293 11.052L12.98 12.4293ZM13.6627 7.01332L11.9813 4.63599L10.348 5.79065L12.028 8.16799L13.6627 7.01332ZM12.2533 11.74C12.0134 11.5087 11.7711 11.2798 11.5267 11.0533L11.524 11.056L11.52 11.06C11.4963 11.0845 11.4741 11.1103 11.4533 11.1373C11.3226 11.3103 11.2192 11.5023 11.1467 11.7067C11.016 12.0733 10.9467 12.5587 11.0347 13.164C11.208 14.3533 11.988 15.952 14.024 18.0973L15.4747 16.7187C13.5707 14.7147 13.1013 13.4813 13.0133 12.8733C12.9707 12.58 13.0133 12.4267 13.0307 12.3773L13.0413 12.352C13.0304 12.3695 13.0179 12.3861 13.004 12.4013C12.9962 12.4104 12.9882 12.4206 12.98 12.4293L12.2533 11.74ZM14.024 18.096C16.0547 20.2347 17.588 21.0747 18.7573 21.2653C19.3587 21.3627 19.8453 21.284 20.2133 21.1387C20.4172 21.0586 20.6068 20.946 20.7747 20.8053L20.8227 20.76L20.8413 20.7413C20.8445 20.7387 20.8476 20.736 20.8507 20.7333L20.8547 20.7293L20.856 20.7267C20.856 20.7267 20.8587 20.7253 20.1333 20.036C19.408 19.348 19.4093 19.3467 19.4093 19.3453L19.412 19.344L19.4147 19.34L19.4227 19.3333C19.4428 19.3139 19.4637 19.2952 19.4853 19.2773C19.4973 19.2693 19.496 19.272 19.4787 19.2787C19.452 19.2893 19.332 19.332 19.0787 19.2907C18.5427 19.2027 17.3853 18.7307 15.4747 16.7187L14.024 18.096ZM11.9813 4.63599C10.6293 2.72399 7.92533 2.39999 6.29067 4.12265L7.74 5.49999C8.43733 4.76665 9.66533 4.82399 10.348 5.79065L11.9813 4.63599ZM24.6093 26.316C24.2373 26.708 23.8493 26.9187 23.4707 26.956L23.6667 28.9453C24.6627 28.848 25.4693 28.3173 26.06 27.6947L24.6093 26.3173V26.316ZM13.3613 12.0267C14.652 10.668 14.7427 8.54265 13.6627 7.01332L12.0293 8.16799C12.592 8.96399 12.5053 10.0253 11.912 10.6493L13.3613 12.0267ZM26.012 21.2827C27.1067 21.9133 27.3213 23.4627 26.504 24.3227L27.9533 25.7C29.6933 23.868 29.1853 20.8027 27.0093 19.5493L26.012 21.2827ZM21.4667 20.0853C21.98 19.544 22.7813 19.4227 23.4653 19.816L24.4627 18.0827C22.9973 17.24 21.1827 17.4813 20.016 18.708L21.4667 20.0853ZM15.2827 24.7227C13.972 23.8987 12.576 22.784 11.1453 21.2787L9.696 22.656C11.2347 24.276 12.7587 25.4987 14.2187 26.416L15.2827 24.7227ZM23.4693 26.956C22.3588 27.0535 21.2398 26.982 20.1507 26.744L19.7413 28.7027C21.03 28.9818 22.3535 29.0636 23.6667 28.9453L23.4707 26.956H23.4693Z" fill="#C826E4"/>
</svg>