<svg width="21" height="20" viewBox="0 0 21 20" fill="none" xmlns="http://www.w3.org/2000/svg">
  <g opacity="0.77" clip-path="url(#clip0_237_139)">
    <path d="M20.265 10.235C20.265 4.84191 15.8931 0.469963 10.5 0.469963C5.10693 0.469963 0.734985 4.84191 0.734985 10.235C0.734985 15.1089 4.30589 19.1488 8.97422 19.8814V13.0577H6.49482V10.235H8.97422V8.08363C8.97422 5.63627 10.4321 4.28442 12.6626 4.28442C13.7307 4.28442 14.8485 4.47515 14.8485 4.47515V6.87826H13.6172C12.4042 6.87826 12.0258 7.63104 12.0258 8.40404V10.235H14.7341L14.3011 13.0577H12.0258V19.8814C16.6941 19.1488 20.265 15.1089 20.265 10.235Z" fill="#101239"/>
  </g>
  <defs>
    <clipPath id="clip0_237_139">
      <rect width="19.53" height="19.53" fill="white" transform="translate(0.734985 0.469963)"/>
    </clipPath>
  </defs>
</svg>