<svg width="26" height="18" viewBox="0 0 26 18" fill="none" xmlns="http://www.w3.org/2000/svg">
  <g clip-path="url(#clip0_676_286)">
    <path d="M25.0346 2.8075C24.8878 2.26486 24.6014 1.77014 24.2039 1.37263C23.8064 0.975112 23.3117 0.688661 22.769 0.5418C20.7824 0 12.787 0 12.787 0C12.787 0 4.79122 0.0164 2.80462 0.5582C2.26197 0.70507 1.76726 0.991536 1.36976 1.38907C0.972263 1.78661 0.685841 2.28134 0.539019 2.824C-0.0618808 6.3538 -0.294981 11.7324 0.555519 15.121C0.702357 15.6636 0.988785 16.1584 1.38628 16.5559C1.78378 16.9534 2.27848 17.2398 2.82112 17.3867C4.80772 17.9285 12.8033 17.9285 12.8033 17.9285C12.8033 17.9285 20.7988 17.9285 22.7853 17.3867C23.328 17.2399 23.8227 16.9534 24.2202 16.5559C24.6177 16.1584 24.9042 15.6637 25.051 15.121C25.6848 11.5862 25.8801 6.2109 25.0346 2.8075Z" fill="#FF0000"/>
    <path d="M10.2421 12.8059L16.8749 8.96411L10.2421 5.12231V12.8059Z" fill="white"/>
  </g>
  <defs>
    <clipPath id="clip0_676_286">
      <rect width="25.6" height="18" fill="white"/>
    </clipPath>
  </defs>
</svg>