<svg width="32" height="26" viewBox="0 0 32 26" fill="none" xmlns="http://www.w3.org/2000/svg">
  <g clip-path="url(#clip0_676_280)">
    <path d="M7.27275 24.9437V12.58L3.43837 9.07211L0 7.12549V22.7619C0 23.9691 0.978125 24.9437 2.18187 24.9437H7.27275Z" fill="#4285F4"/>
    <path d="M24.7272 24.9439H29.8181C31.0255 24.9439 32 23.9656 32 22.762V7.12573L28.1055 9.35536L24.7272 12.5801V24.9439Z" fill="#34A853"/>
    <path d="M7.27276 12.58L6.75101 7.74911L7.27276 3.12549L16 9.67099L24.7273 3.12549L25.3109 7.49949L24.7273 12.58L16 19.1255L7.27276 12.58Z" fill="#EA4335"/>
    <path d="M24.7272 3.12546V12.58L32 7.12546V4.21634C32 1.51821 28.92 -0.0199137 26.7637 1.59821L24.7272 3.12546Z" fill="#FBBC04"/>
    <path d="M0 7.12552L3.34488 9.63427L7.27275 12.58V3.12552L5.23625 1.59827C3.07625 -0.0199814 0 1.51827 0 4.21627V7.12539V7.12552Z" fill="#C5221F"/>
  </g>
  <defs>
    <clipPath id="clip0_676_280">
      <rect width="32" height="24.125" fill="white" transform="translate(0 0.9375)"/>
    </clipPath>
  </defs>
</svg>