<svg width="212" height="78" viewBox="0 0 212 78" fill="none" xmlns="http://www.w3.org/2000/svg">
<g id="Group 7">
<path id="Vector 11" d="M0.731624 6.5L6.50513 12.2735L12.2786 6.5L6.50513 0.726497L0.731624 6.5ZM206 63.5468L211.773 57.7733L206 51.9998L200.226 57.7733L206 63.5468ZM6.50513 7.5H186V5.5H6.50513V7.5ZM205 26.5V57.7733H207V26.5H205ZM186 7.5C196.493 7.5 205 16.0066 205 26.5H207C207 14.902 197.598 5.5 186 5.5V7.5Z" fill="#C826E4"/>
<path id="Vector 12" d="M211.268 71.5L205.495 65.7265L199.721 71.5L205.495 77.2735L211.268 71.5ZM6 14.4532L0.226501 20.2267L6 26.0002L11.7735 20.2267L6 14.4532ZM205.495 70.5H26V72.5H205.495V70.5ZM7 51.5V20.2267H5V51.5H7ZM26 70.5C15.5066 70.5 7 61.9934 7 51.5H5C5 63.098 14.4021 72.5 26 72.5V70.5Z" fill="#C826E4"/>
</g>
</svg>
