<svg width="23" height="24" viewBox="0 0 23 24" fill="none" xmlns="http://www.w3.org/2000/svg">
  <path d="M11.5 2.82393C14.5311 2.82393 14.89 2.83722 16.0821 2.8904C17.1899 2.93914 17.7882 3.12526 18.187 3.28036C18.7144 3.48421 19.0955 3.73237 19.4899 4.12677C19.8887 4.5256 20.1324 4.90227 20.3363 5.42961C20.4914 5.82844 20.6775 6.43111 20.7262 7.53454C20.7794 8.73102 20.7927 9.08997 20.7927 12.1166C20.7927 15.1477 20.7794 15.5067 20.7262 16.6987C20.6775 17.8066 20.4914 18.4048 20.3363 18.8037C20.1324 19.331 19.8843 19.7121 19.4899 20.1065C19.091 20.5053 18.7144 20.7491 18.187 20.9529C17.7882 21.108 17.1855 21.2941 16.0821 21.3429C14.8856 21.3961 14.5267 21.4093 11.5 21.4093C8.46888 21.4093 8.10994 21.3961 6.91788 21.3429C5.81003 21.2941 5.21178 21.108 4.81295 20.9529C4.28561 20.7491 3.90451 20.5009 3.51011 20.1065C3.11128 19.7077 2.86755 19.331 2.66371 18.8037C2.50861 18.4048 2.32249 17.8022 2.27374 16.6987C2.22056 15.5023 2.20727 15.1433 2.20727 12.1166C2.20727 9.08554 2.22056 8.72659 2.27374 7.53454C2.32249 6.42668 2.50861 5.82844 2.66371 5.42961C2.86755 4.90227 3.11571 4.52116 3.51011 4.12677C3.90894 3.72794 4.28561 3.48421 4.81295 3.28036C5.21178 3.12526 5.81446 2.93914 6.91788 2.8904C8.10994 2.83722 8.46888 2.82393 11.5 2.82393ZM11.5 0.781036C8.42014 0.781036 8.0346 0.794331 6.82482 0.847508C5.61947 0.900685 4.7908 1.09567 4.0729 1.37485C3.32399 1.66732 2.6903 2.05286 2.06103 2.68655C1.42734 3.31581 1.0418 3.94951 0.749329 4.69399C0.470149 5.41631 0.275166 6.24056 0.221989 7.44591C0.168812 8.66012 0.155518 9.04566 0.155518 12.1255C0.155518 15.2053 0.168812 15.5909 0.221989 16.8007C0.275166 18.006 0.470149 18.8347 0.749329 19.5526C1.0418 20.3015 1.42734 20.9352 2.06103 21.5644C2.6903 22.1937 3.32399 22.5837 4.06847 22.8717C4.7908 23.1509 5.61504 23.3459 6.82039 23.3991C8.03017 23.4522 8.41571 23.4655 11.4956 23.4655C14.5754 23.4655 14.9609 23.4522 16.1707 23.3991C17.3761 23.3459 18.2047 23.1509 18.9226 22.8717C19.6671 22.5837 20.3008 22.1937 20.9301 21.5644C21.5593 20.9352 21.9493 20.3015 22.2373 19.557C22.5165 18.8347 22.7115 18.0104 22.7647 16.8051C22.8179 15.5953 22.8312 15.2098 22.8312 12.1299C22.8312 9.05009 22.8179 8.66455 22.7647 7.45477C22.7115 6.24942 22.5165 5.42074 22.2373 4.70285C21.9582 3.94951 21.5726 3.31581 20.9389 2.68655C20.3097 2.05729 19.676 1.66732 18.9315 1.37928C18.2092 1.1001 17.3849 0.905116 16.1796 0.851939C14.9654 0.794331 14.5798 0.781036 11.5 0.781036Z" fill="#101239"/>
  <path d="M11.5 6.29817C8.28276 6.29817 5.67265 8.90829 5.67265 12.1255C5.67265 15.3427 8.28276 17.9528 11.5 17.9528C14.7172 17.9528 17.3273 15.3427 17.3273 12.1255C17.3273 8.90829 14.7172 6.29817 11.5 6.29817ZM11.5 15.9055C9.41278 15.9055 7.71997 14.2127 7.71997 12.1255C7.71997 10.0383 9.41278 8.34549 11.5 8.34549C13.5872 8.34549 15.28 10.0383 15.28 12.1255C15.28 14.2127 13.5872 15.9055 11.5 15.9055Z" fill="#101239"/>
  <path d="M18.9182 6.0677C18.9182 6.82104 18.3067 7.42815 17.5578 7.42815C16.8044 7.42815 16.1973 6.81661 16.1973 6.0677C16.1973 5.31435 16.8088 4.70724 17.5578 4.70724C18.3067 4.70724 18.9182 5.31878 18.9182 6.0677Z" fill="#101239"/>
</svg>